<mxfile host="app.diagrams.net" modified="2023-05-23T05:43:18.592Z" agent="Mozilla/5.0 (Macintosh; Intel Mac OS X 10_15_7) AppleWebKit/537.36 (KHTML, like Gecko) Chrome/113.0.0.0 Safari/537.36" version="21.3.2" etag="jdbr4vyoxVc_lCPBM09H" type="github">
  <diagram name="หน้า-1" id="apjuzi-neVrSsU9VeK2W">
    <mxGraphModel>
      <root>
        <mxCell id="0" />
        <mxCell id="1" parent="0" />
      </root>
    </mxGraphModel>
  </diagram>
</mxfile>
